<svg width="24" height="24" viewBox="0 0 24 24" fill="none" xmlns="http://www.w3.org/2000/svg">
<mask id="mask0_12_1287" style="mask-type:alpha" maskUnits="userSpaceOnUse" x="0" y="0" width="24" height="24">
<circle cx="11.9607" cy="11.9607" r="11.9607" fill="#D9D9D9"/>
</mask>
<g mask="url(#mask0_12_1287)">
<path d="M18.5177 21.8353C18.4628 21.8745 18.4 21.9137 18.3451 21.9529C18.2824 21.9922 18.2275 22.0314 18.1647 22.0627C18.1098 22.0941 18.0628 22.1255 18.0079 22.1569C18 22.1647 17.9922 22.1647 17.9843 22.1726C17.8039 22.2824 17.6157 22.3843 17.4275 22.4784C17.3726 22.5098 17.3098 22.5412 17.2549 22.5647C17.2549 22.5647 17.2471 22.5726 17.2392 22.5726C17.1765 22.6039 17.1137 22.6353 17.051 22.6667C16.9255 22.7294 16.7922 22.7843 16.6667 22.8392C16.6039 22.8706 16.5333 22.8941 16.4706 22.9177C16.4079 22.9412 16.3373 22.9726 16.2745 22.9961C16.2118 23.0196 16.1412 23.051 16.0784 23.0745C16.0784 23.0745 16.0784 23.0745 16.0706 23.0745C16.0079 23.098 15.9373 23.1216 15.8745 23.1451C15.7333 23.1922 15.5843 23.2392 15.4431 23.2863C15.3961 23.302 15.3412 23.3177 15.2941 23.3333C15.1451 23.3804 14.9961 23.4196 14.8471 23.451C14.7922 23.4667 14.7373 23.4745 14.6745 23.4902C14.5333 23.5216 14.3843 23.5529 14.2431 23.5843C14.2118 23.5922 14.1882 23.5922 14.1569 23.6C14.1098 23.6078 14.0549 23.6157 14.0079 23.6235C13.9373 23.6314 13.8745 23.6471 13.8039 23.6549C13.7726 23.6627 13.7412 23.6627 13.7098 23.6706C13.6706 23.6784 13.6235 23.6863 13.5765 23.6863C13.451 23.702 13.3177 23.7177 13.1922 23.7333C13.153 23.7412 13.1059 23.7412 13.0667 23.749H13.0588C13.0039 23.7569 12.949 23.7569 12.8941 23.7647C12.8392 23.7726 12.7843 23.7726 12.7294 23.7726C12.698 23.7726 12.6588 23.7804 12.6275 23.7804C12.5647 23.7804 12.5098 23.7882 12.4549 23.7882C12.3765 23.7882 12.3059 23.7961 12.2275 23.7961C12.149 23.7961 12.0784 23.7961 12 23.7961C11.9451 23.7961 11.8902 23.7961 11.8353 23.7961C8.5255 23.749 5.55295 22.3451 3.42746 20.1177C3.42746 20.1177 3.42746 20.1098 3.41962 20.1098C3.18432 19.898 3.38824 18.7686 4.33726 18.0549C5.52942 17.1529 8.38432 16.5882 8.38432 16.5882C8.38432 16.5882 9.4902 16.4078 13.5922 17.2627C15.9922 17.7647 17.8196 18.4941 18.8392 20.4706C19.051 20.8784 19.2628 21.5059 18.5177 21.8353Z" fill="#F8F8F2"/>
<path d="M13.6157 17.1765C15.1216 17.4824 16.7294 17.8118 17.9686 18.8078C18.3843 19.1451 18.6588 19.6392 18.8863 20.1177C18.9961 20.3529 19.1059 20.5961 19.1922 20.8549C19.2392 21.0275 19.3098 21.2235 19.2706 21.4275C19.2628 21.4824 19.2157 21.5529 19.1765 21.5922C18.9961 21.7726 18.8 21.8824 18.6039 22.0235C17.451 22.8235 16.1255 23.3882 14.753 23.6863C11.6941 24.3529 8.38433 23.8353 5.69413 22.2275C4.80001 21.6863 3.97648 21.0275 3.2706 20.251C3.19217 20.1569 3.19217 20 3.19217 19.898C3.20001 19.6627 3.26276 19.4353 3.34119 19.2235C3.52942 18.7373 3.77256 18.251 4.18825 17.9137C4.48629 17.7098 4.80786 17.5373 5.13727 17.3961C6.17256 16.9569 7.26276 16.651 8.38433 16.5255C8.47844 16.5177 8.49413 16.651 8.40001 16.6667C7.3255 16.8863 6.25884 17.2157 5.26276 17.6627C4.90197 17.8431 4.51766 18 4.22746 18.2824C3.95295 18.5804 3.75688 18.949 3.60001 19.3255C3.49805 19.5529 3.42746 19.9137 3.45884 20.0941C3.95295 20.6824 4.53335 21.2 5.1608 21.6471C8.59609 24.0471 13.8118 24.2039 17.4667 22.2039C17.7961 22.0235 18.1177 21.8196 18.4235 21.6078C18.5726 21.5059 18.7294 21.4196 18.8471 21.302C18.8549 21.2941 18.8471 21.302 18.8471 21.3098C18.8471 21.3177 18.8392 21.3255 18.8392 21.3255C18.8471 21.2314 18.8157 21.1059 18.7765 20.9804C18.6353 20.5255 18.4079 20.0471 18.1647 19.6314C17.7804 19.0118 17.1294 18.6196 16.4706 18.3059C16.0157 18.0941 15.5373 17.9294 15.051 17.7726C14.5647 17.6157 14.0706 17.4824 13.5765 17.3647C13.451 17.3333 13.4902 17.1529 13.6157 17.1765Z" fill="#44475A"/>
<path d="M19.5921 22.949C19.4431 21.7882 18.7843 19.8353 18.3843 19.3098C17.9451 18.7372 17.7647 18.5568 16.298 18.0627C16.2196 17.6706 15.9294 16.6823 15.5843 16.2667C15.0588 15.4745 13.6235 15.2941 13.1921 15.3882C13.1921 15.3882 10.8706 14.5725 8.19605 14.5725C7.34899 14.7608 6.3686 15.1451 5.83527 15.9529C5.47448 16.4863 5.88232 16.6588 5.70193 17.1451C5.65487 17.2706 4.55683 17.898 4.10978 18.2745C3.90585 18.4392 3.6784 18.8549 3.52154 19.3961C3.20781 20.5019 3.54507 22.0314 3.15291 23.3647C2.39997 25.9372 0.87056 26.7059 0.87056 26.7059H21.1372C21.1215 26.698 19.9137 25.3961 19.5921 22.949Z" fill="#F8F8F2"/>
<path d="M19.4745 22.9647C19.3177 21.9373 19.0039 20.9177 18.6039 19.9608C18.4078 19.498 18.1098 19.051 17.6941 18.7765C17.4824 18.6431 17.2471 18.5412 17.0039 18.4392C16.7608 18.3451 16.5098 18.2588 16.2667 18.1726C16.2275 18.1569 16.1961 18.1255 16.1882 18.0863C16.1569 17.9294 16.1177 17.7804 16.0706 17.6235C15.8667 16.9882 15.6471 16.2824 15.051 15.9137C14.5961 15.6392 14.0549 15.5059 13.5294 15.4824C13.4275 15.4824 13.3177 15.4824 13.2235 15.498H13.1922C13.1843 15.498 13.1686 15.498 13.1608 15.4902C12.7843 15.3098 12.3686 15.2 11.9608 15.0902C10.7373 14.8079 9.45883 14.6902 8.20393 14.6824C7.4353 14.8628 6.36079 15.2863 5.8902 16.0706C5.81177 16.1961 5.77255 16.3216 5.78824 16.4628C5.80393 16.6196 5.85883 16.7922 5.81961 16.9569C5.80393 17.0275 5.78824 17.1059 5.75687 17.1686C5.69412 17.2549 5.59216 17.3098 5.51373 17.3647C5.10589 17.6314 4.6902 17.8667 4.29804 18.1412C4.16471 18.2353 4.03922 18.3216 3.9451 18.4549C3.67059 18.8471 3.50589 19.3177 3.4353 19.7882C3.30981 20.7451 3.4353 21.7177 3.30981 22.6745C3.16863 23.6314 2.8 24.5569 2.28236 25.3726C1.92157 25.9216 1.48236 26.4314 0.925494 26.7843L0.870592 26.5647H21.1373L21.051 26.7608C20.8157 26.4941 20.6275 26.2039 20.4549 25.898C19.9216 25.0039 19.6078 23.9922 19.4745 22.9647ZM19.7098 22.9333C19.7961 23.6 19.9608 24.2588 20.2118 24.8863C20.4628 25.5059 20.7765 26.1098 21.2157 26.6196C21.2784 26.6902 21.2235 26.8235 21.1294 26.8157H0.862749C0.800004 26.8157 0.745102 26.7608 0.745102 26.698C0.745102 26.651 0.768631 26.6118 0.807847 26.5961C0.933337 26.5255 1.05883 26.4235 1.17647 26.3216C2.20393 25.3961 2.84706 24.0235 3.05883 22.6588C3.23922 21.3804 2.90196 20 3.47451 18.7843C3.60785 18.502 3.77255 18.2039 4.03922 18.0235C4.52549 17.6628 5.05883 17.3961 5.53726 17.0431C5.5451 17.0431 5.5451 17.0353 5.5451 17.0353C5.53726 17.0431 5.52942 17.0588 5.52942 17.0667C5.57647 16.9569 5.59216 16.8628 5.57647 16.7373C5.55295 16.5804 5.51373 16.3686 5.56863 16.2039C5.59216 16.1098 5.63922 16.0235 5.68628 15.9529C6.25098 15.1059 7.24706 14.7294 8.19608 14.5177C8.46275 14.5255 8.73726 14.4784 9.00393 14.4784C9.37255 14.4784 9.74902 14.5333 10.1177 14.5804C11.1765 14.7451 12.1961 15.0275 13.2392 15.2549L13.1686 15.2471C13.4118 15.2 13.6392 15.2235 13.8745 15.2549C15.3804 15.4824 15.8902 16.1412 16.298 17.5451C16.3451 17.702 16.3843 17.8588 16.4235 18.0235L16.3451 17.9294C17.098 18.1961 17.9451 18.4392 18.4235 19.1373C18.5961 19.349 18.7216 19.6 18.8314 19.851C19.2314 20.8549 19.5451 21.8667 19.7098 22.9333Z" fill="#44475A"/>
<path d="M7.2314 17.7883C7.81179 19.0275 8.71375 20.0785 9.78826 20.9098C9.82748 20.9412 9.78826 21.004 9.7412 20.9804C8.78434 20.5255 7.9765 19.749 7.49807 18.8079C7.3412 18.4941 7.20787 18.1569 7.16081 17.804C7.14513 17.7647 7.20787 17.749 7.2314 17.7883Z" fill="#44475A"/>
<path d="M16.4157 18.0471C16.4392 19.3569 15.9059 20.6981 14.8863 21.5451C14.8628 21.5686 14.8314 21.5608 14.8079 21.5373C14.7843 21.5137 14.7922 21.4824 14.8157 21.4588C15.0432 21.2392 15.2706 21.0118 15.4432 20.7451C15.8039 20.2275 16.0235 19.6157 16.1255 18.9961C16.1726 18.6902 16.2039 18.3608 16.1804 18.0549C16.1726 17.9059 16.4079 17.8902 16.4157 18.0471Z" fill="#44475A"/>
<path d="M11.7961 21.1608C11.6157 21.7961 11.4667 22.4863 11.5529 23.1451C11.5765 23.2941 11.349 23.3333 11.3177 23.1765C11.2784 22.8157 11.3255 22.4628 11.3882 22.1177C11.4588 21.7726 11.5451 21.4431 11.6628 21.1137C11.6941 21.0353 11.8275 21.0745 11.7961 21.1608Z" fill="#44475A"/>
<path d="M14.2902 21.0431C14.549 21.6 14.7294 22.1804 14.8706 22.7686C14.8863 22.8314 14.8471 22.8941 14.7843 22.9098C14.7216 22.9255 14.6588 22.8863 14.6431 22.8235C14.5647 22.3843 14.4628 21.9451 14.3216 21.5137C14.2745 21.3726 14.2275 21.2314 14.1726 21.0902C14.1412 21.0196 14.251 20.9647 14.2902 21.0431Z" fill="#44475A"/>
<path d="M5.86667 17.1137C6.15686 18.698 7.27059 20.0392 8.61176 20.8941C9.06666 21.1843 9.55294 21.4353 10.0549 21.6392C10.0863 21.6549 10.102 21.6863 10.0863 21.7177C10.0784 21.749 10.0392 21.7647 10.0157 21.749C9.49804 21.5608 8.99608 21.3255 8.52549 21.0431C7.56863 20.4784 6.72941 19.6941 6.1647 18.7373C5.87451 18.2431 5.64706 17.7255 5.53725 17.1608C5.52157 17.0667 5.58431 16.9804 5.67843 16.9647C5.7647 16.9412 5.85882 17.0118 5.86667 17.1137Z" fill="#44475A"/>
<path d="M11.3255 23.3177C11.1059 23.2941 10.949 23.0902 10.996 22.8706L11.0823 22.4549C11.1137 22.2902 11.2706 22.1726 11.4353 22.1961C11.6 22.2118 11.7333 22.353 11.7333 22.5255V22.949C11.7411 23.1686 11.5529 23.3412 11.3255 23.3177Z" fill="#44475A"/>
<path d="M14.9412 23.0275C14.7294 23.1059 14.502 22.9804 14.4471 22.7608L14.3451 22.3451C14.3059 22.1804 14.3922 22.0157 14.5569 21.9529C14.7137 21.898 14.8941 21.9686 14.9647 22.1177L15.1529 22.502C15.2471 22.7137 15.1529 22.9569 14.9412 23.0275Z" fill="#44475A"/>
<path d="M4.72158 26.698C4.72158 26.698 4.65099 24.949 4.4157 24.4784" stroke="#44475A" stroke-width="5.1257" stroke-miterlimit="10" stroke-linecap="round" stroke-linejoin="round"/>
<path d="M18.5647 22.7922C18.5647 22.7922 19.0039 25.2549 18.8314 26.698" stroke="#44475A" stroke-width="5.1257" stroke-miterlimit="10" stroke-linecap="round" stroke-linejoin="round"/>
<path d="M17.302 25.1608C17.302 25.1608 16.1412 25.3333 15.1216 25.2863" stroke="#44475A" stroke-width="5.1257" stroke-miterlimit="10" stroke-linecap="round" stroke-linejoin="round"/>
<path d="M8.32155 16.8314C8.21175 16.5177 8.16469 16.1961 8.18822 15.8667C8.18822 15.8353 8.21175 15.8196 8.24312 15.8196C8.26665 15.8196 8.29018 15.8432 8.29018 15.8667C8.31371 16.1647 8.39998 16.4706 8.54116 16.7294C8.61174 16.8863 8.37645 16.9883 8.32155 16.8314Z" fill="#44475A"/>
<path d="M13.6235 17.2471C13.4039 16.753 12.8627 16.502 12.3843 16.3294C12.0863 16.2353 11.7568 16.1647 11.4431 16.1177C10.6823 16 9.60782 15.8196 8.84704 15.7412C8.8392 15.7412 8.8392 15.7255 8.84704 15.7255C9.06665 15.702 9.28625 15.702 9.50586 15.702C10.1647 15.7177 10.8235 15.7883 11.4745 15.8902C12.1255 15.9922 12.8235 16.1883 13.3176 16.6588C13.4745 16.8235 13.6157 17.0118 13.6549 17.2392C13.6627 17.2628 13.6314 17.2706 13.6235 17.2471Z" fill="#44475A"/>
<path d="M14.3529 19.2627C14.1882 20.0706 13.1215 20.5569 11.3255 19.8275C9.45879 19.0745 8.65094 17.2784 8.44702 16.7451C9.5529 14.6745 8.78428 13.2392 8.78428 13.2392C11.3333 13.0196 13.5607 16 13.5607 16L13.9058 17.4745C13.9372 17.6 14 17.7098 14.0941 17.7882C14.2588 18.0784 14.4549 18.7451 14.3529 19.2627Z" fill="#F8F8F2"/>
<path d="M8.40785 16.7686C8.55686 16.5412 8.65098 16.2745 8.71373 16.0157C8.83137 15.4745 8.87059 14.9255 8.87843 14.3765V14.1726C8.8549 13.9686 8.78432 13.7569 8.70588 13.5686C8.60392 13.3177 8.97255 13.1608 9.0902 13.4118C9.10588 13.4431 9.10588 13.498 9.10588 13.5294C9.12941 14.5961 9.17647 15.9686 8.50196 16.8549C8.4549 16.902 8.36079 16.8314 8.40785 16.7686Z" fill="#44475A"/>
<path d="M13.647 15.9843C13.7647 16.0549 13.8039 16.149 13.8196 16.2431C13.8666 16.4314 13.851 16.6353 13.898 16.8314C13.9372 17.0196 14.0549 17.2 14.0863 17.3961C14.1255 17.6 14.2431 18.0314 14.2902 18.2431C14.3059 18.2902 14.2745 18.3451 14.2196 18.353C14.1882 18.3608 14.1647 18.353 14.1412 18.3373C14.0392 18.251 13.9921 18.1647 13.9294 18.0549C13.8274 17.8667 13.7568 17.6941 13.6941 17.4824C13.6392 17.2941 13.6627 17.0902 13.6157 16.8941C13.5764 16.7059 13.4666 16.5255 13.4274 16.3294C13.4039 16.2353 13.3961 16.1333 13.4666 16.0157C13.5137 15.9686 13.5921 15.953 13.647 15.9843Z" fill="#44475A"/>
<path d="M14.2118 18.0549C12.7137 17.9765 11.4902 17.5059 10.298 15.3804C11.302 16.2667 12.4863 16.6039 13.7333 16.7608L13.898 17.4824C13.9294 17.6078 14.1176 17.9765 14.2118 18.0549Z" fill="#44475A"/>
<path d="M14.1491 17.7647C14.4157 18.2667 14.5726 18.8941 14.4079 19.451C14.2824 19.8431 13.9216 20.1333 13.5294 20.2431C12.6196 20.4863 11.5687 20.102 10.7608 19.6706C9.76474 19.1137 9.02748 18.1804 8.55689 17.1608C8.52552 17.0824 8.63533 17.0196 8.68238 17.098C8.84709 17.4275 9.03533 17.749 9.24709 18.0392C9.45886 18.3373 9.70199 18.6118 9.9765 18.8549C10.7765 19.5765 11.8589 20.0235 12.9412 20.0235C14.0549 19.9922 14.4785 19.4039 14.2196 18.3216C14.1804 18.149 14.1177 17.9686 14.0314 17.8196C13.9843 17.7569 14.102 17.6863 14.1491 17.7647Z" fill="#44475A"/>
<path d="M17.1843 8.3451C17.3255 9.00393 17.3961 9.53726 17.0118 11.2941C16.6353 13.0431 17.3647 14.8078 15.5138 16.4157C14.2667 17.498 12.0863 17.702 10.3451 16.5177C9.75689 16.1177 9.60002 14.251 9.13728 13.5373C8.9412 13.2392 8.82355 13.7177 8.3765 13.2235C7.75689 12.549 7.01179 11.1922 7.38042 8.79216C7.9765 4.90197 11.0588 4.44706 13.3412 4.87844C15.6314 5.30981 16.8079 6.61177 17.1843 8.3451Z" fill="#F8F8F2"/>
<path d="M8.76078 13.9137C8.58039 13.6157 8.35294 13.3569 8.14117 13.0824C7.82745 12.6588 7.59215 12.1726 7.43529 11.6706C6.76078 9.52157 7.12157 6.72157 9.11372 5.3804C10.9569 4.13334 14.4784 4.50981 16.0941 6.01569C16.902 6.7451 17.349 7.80393 17.4431 8.87059C17.4902 9.58432 17.3176 10.2745 17.1686 10.9647C16.9961 11.6392 16.9569 12.3137 16.9569 13.0118C16.949 13.7098 16.9176 14.4392 16.651 15.098C16.2431 16.102 15.3882 16.9177 14.3608 17.2628C13.0118 17.7333 11.4196 17.4667 10.3137 16.5647C10.2667 16.5255 10.3137 16.4627 10.3686 16.4863C11.8196 17.3098 13.7255 17.451 15.1373 16.502C15.9765 15.9373 16.5569 15.0431 16.6902 14.0392C16.8 13.3569 16.7686 12.6667 16.8314 11.9765C16.8549 11.6706 16.9412 11.2471 17.0039 10.9412C17.098 10.4314 17.1608 9.92157 17.1529 9.41177C17.1451 8.90981 17.0353 8.41569 16.8863 7.93726C16.3686 6.2353 14.8863 5.23138 13.1765 4.95687C10.6196 4.50981 8.38431 5.45883 7.71764 8.11765C7.42745 9.41961 7.2 10.8549 7.74902 12.1177C7.94509 12.5961 8.26666 13.0039 8.63529 13.3569L8.99607 13.7412C9.15294 13.898 8.88627 14.102 8.76078 13.9137Z" fill="#44475A"/>
<path d="M9.68623 11.4196C9.68623 11.4196 9.44309 10.2431 8.29799 10.3843C7.30976 10.5098 6.96466 12.8784 9.2078 13.5373" fill="#F8F8F2"/>
<path d="M9.10586 12.5098C8.92546 12.4078 8.79997 12.2353 8.79213 12.0235C8.79997 11.8667 8.8235 11.6863 8.78429 11.5294C8.76076 11.3804 8.60389 11.3412 8.48625 11.349C8.36076 11.3725 8.28233 11.5294 8.2588 11.6549C8.2588 11.6627 8.25095 11.6863 8.25095 11.6941C8.24311 11.7333 8.18037 11.7333 8.16468 11.6941C8.06272 11.3882 8.29017 11.051 8.61958 11.0902C9.08233 11.1216 9.14507 11.6078 9.0588 11.9765C9.01174 12.1333 9.07448 12.2745 9.16076 12.4078L9.17644 12.4314C9.21566 12.4784 9.15291 12.5412 9.10586 12.5098Z" fill="#44475A"/>
<path d="M15.3804 10.5882C15.498 11.1451 15.7176 11.6627 15.9921 12.149C16.2353 12.7451 15.6078 13.3098 15.051 13.2863C14.9882 13.2863 14.9804 13.2 15.0353 13.1843C15.3882 13.0745 15.7098 12.8392 15.7647 12.4784C15.7882 12.3686 15.7568 12.2745 15.7019 12.1804C15.4431 11.6941 15.2862 11.1373 15.3255 10.5882C15.3255 10.549 15.3804 10.549 15.3804 10.5882Z" fill="#44475A"/>
<path d="M9.64706 11.4275C9.46666 10.9647 9.07451 10.5255 8.54902 10.5333C8.50196 10.5255 8.42353 10.5412 8.37647 10.5412C8.24313 10.549 8.13333 10.5961 8.03137 10.6902C7.52941 11.1922 7.61568 12.0784 8.02353 12.6353C8.1647 12.8314 8.34509 13.0039 8.54902 13.1451C8.75294 13.2863 8.98039 13.3961 9.22353 13.4902C9.27843 13.5059 9.2549 13.5922 9.2 13.5843C8.67451 13.4745 8.17255 13.2157 7.82745 12.7843C7.29411 12.1412 7.18431 11.0667 7.8196 10.4392C7.96078 10.3137 8.15686 10.2196 8.35294 10.2196C8.41568 10.2196 8.5098 10.2039 8.57255 10.2196C8.90196 10.2353 9.21568 10.4 9.4196 10.6588C9.6 10.8784 9.70196 11.1451 9.73333 11.4118C9.73333 11.4588 9.66274 11.4745 9.64706 11.4275Z" fill="#44475A"/>
<path d="M14.7843 14.0706C14.2824 14.549 13.3333 14.1647 13.0824 13.5843C13.051 13.5137 13.1294 13.451 13.1922 13.4824C13.3255 13.5529 13.4431 13.6235 13.5686 13.6784C13.9294 13.8431 14.3059 13.9765 14.7059 13.9373C14.7843 13.9216 14.8392 14.0157 14.7843 14.0706Z" fill="#44475A"/>
<path d="M12.4549 11.3882C12.2667 11.3804 12.1255 11.2235 12.1412 11.0353L12.149 10.8157C12.1569 10.6275 12.3137 10.4863 12.502 10.502C12.6902 10.5098 12.8314 10.6667 12.8157 10.8549L12.8079 11.0745C12.8 11.2549 12.6432 11.3961 12.4549 11.3882Z" fill="#44475A"/>
<path d="M15.7568 11.5059C15.5843 11.498 15.451 11.349 15.4588 11.1765L15.4667 10.9726C15.4745 10.8 15.6235 10.6667 15.7961 10.6745C15.9686 10.6824 16.1019 10.8314 16.0941 11.0039L16.0863 11.2079C16.0784 11.3804 15.9294 11.5137 15.7568 11.5059Z" fill="#44475A"/>
<path d="M13.1608 10.9647C12.902 10.7922 12.6196 10.6745 12.3059 10.7373C12.2039 10.7529 12.102 10.7843 12.0392 10.8549C12.0157 10.8863 11.9608 10.8784 11.9608 10.8314C11.9686 10.6745 12.102 10.5726 12.2275 10.5098C12.4706 10.3843 12.8079 10.4078 13.0275 10.5726C13.1059 10.6196 13.3726 10.9098 13.2314 10.9726C13.2 10.9882 13.1843 10.9804 13.1608 10.9647Z" fill="#44475A"/>
<path d="M15.4039 11.0039C15.4039 10.6745 15.8118 10.5569 16.0628 10.6745C16.2039 10.7373 16.3059 10.8627 16.3451 11.0118C16.3608 11.0588 16.2902 11.098 16.2588 11.0588C16.1255 10.902 15.898 10.8235 15.7177 10.9176C15.6628 10.949 15.6549 10.9726 15.6392 11.0039C15.6392 11.1608 15.4118 11.1529 15.4039 11.0039Z" fill="#44475A"/>
<path d="M13.5373 9.67059C13.702 9.72549 13.8667 9.57647 13.8353 9.39608C13.8196 9.30196 13.7804 9.20785 13.702 9.13726C13.4667 8.92549 12.4941 8.73726 11.9059 9.01177C11.3883 9.26275 12.7843 9.41961 13.5373 9.67059Z" fill="#44475A"/>
<path d="M15.8824 9.79608C15.7491 9.84314 15.6079 9.70197 15.6314 9.53726C15.6393 9.45099 15.6706 9.36471 15.7334 9.30197C15.9216 9.11373 16.5648 8.96471 16.9726 9.25491C17.3255 9.49804 16.4942 9.56863 15.8824 9.79608Z" fill="#44475A"/>
<path d="M17.5393 5.78769C17.6805 5.45828 17.6805 5.09749 17.4452 4.78377C16.7629 3.88181 14.6531 4.56416 13.4766 4.18769C11.7119 3.61514 9.52365 3.54455 8.23738 5.6622C7.91581 6.19553 7.75895 6.34455 7.30404 6.76808C6.83346 7.2073 6.46483 8.01514 6.43346 9.12102C6.36287 11.3406 8.10404 13.27 8.10404 13.27C8.19032 13.3877 8.26875 13.4897 8.33934 13.5759C8.96679 14.3289 9.16287 15.7798 8.97463 13.4897C7.02169 12.7367 7.37463 10.5485 8.32365 10.4308C9.32757 10.3053 9.6413 11.1995 9.6962 11.4191C10.3707 10.9877 10.1276 10.07 10.0491 9.21514C10.5746 8.97985 11.0217 8.41514 11.257 7.90534C11.5158 8.26612 11.8295 8.54848 12.206 8.57985C12.606 8.61906 12.8413 8.28181 12.9197 7.80338C13.4374 8.48573 14.355 9.33279 15.7982 9.49749C16.4884 9.57593 17.0609 9.28573 17.4452 8.8073C17.5472 8.82298 17.6413 8.83083 17.7354 8.82299C18.7472 8.72102 19.8766 6.67397 17.5393 5.78769Z" fill="#44475A"/>
<path d="M8.80784 11.6627C8.80784 11.6627 8.18039 11.5686 8.22745 12.4471C8.25098 12.8941 8.25098 13.1373 8.24314 13.2627C8.23529 13.349 8.2902 13.4275 8.36863 13.4588C8.46274 13.498 8.56471 13.4588 8.61176 13.3647C8.68235 13.2392 8.76078 13.0667 8.76078 12.9255C8.76078 12.6902 9.01176 12.4784 9.01176 12.4784C9.01176 12.4784 8.78431 12.2824 8.80784 11.6627Z" fill="#F8F8F2"/>
<path d="M8.78431 11.6863C8.78431 11.6941 8.79215 11.702 8.8 11.702C8.8 11.702 8.8 11.702 8.79215 11.702H8.77647C8.4 11.7333 8.28235 12.0627 8.29804 12.4C8.30588 12.6196 8.32157 12.8392 8.31372 13.051C8.32941 13.1686 8.25882 13.3255 8.37647 13.3882C8.44706 13.4275 8.54117 13.3961 8.57255 13.3176C8.64313 13.1765 8.71372 13.0353 8.71372 12.8784C8.7451 12.698 8.86274 12.5569 8.98823 12.4471V12.5098C8.82353 12.3373 8.78431 12.102 8.76078 11.8824C8.76863 11.8274 8.76863 11.7412 8.78431 11.6863ZM8.83921 11.6314C8.86274 11.851 8.86274 12.0784 8.95686 12.2745C8.98039 12.3294 9.01961 12.3922 9.06666 12.4314C9.09804 12.4549 9.09804 12.502 9.06666 12.5255C8.95686 12.6274 8.86274 12.7529 8.84706 12.8941C8.84706 13.0667 8.77647 13.2314 8.69804 13.3804C8.63529 13.5137 8.4549 13.5843 8.32157 13.5059C8.23529 13.4588 8.17255 13.3647 8.17255 13.2627C8.17255 13.1843 8.18039 13.1216 8.18039 13.0431C8.18039 12.8235 8.1647 12.6118 8.15686 12.3922C8.15686 12.251 8.1647 12.0863 8.22745 11.9451C8.30588 11.7255 8.54902 11.5765 8.78431 11.6157C8.80784 11.6157 8.83137 11.6235 8.83921 11.6314Z" fill="#44475A"/>
<path d="M8.70588 20.949C8.9647 19.8196 8.62745 18.549 8.33725 17.4196C8.2196 16.9725 8.10196 16.549 8.04705 16.1804C7.94509 15.5608 8.01568 14.9725 8.26666 14.4235C8.57255 13.7412 8.52549 13.1608 8.52549 13.1373L8.36862 13.1529C8.36862 13.1608 8.41568 13.7255 8.12549 14.3608C7.86666 14.9333 7.78823 15.5529 7.89019 16.2039C7.95294 16.5804 8.06274 17.0118 8.18039 17.4588C8.47058 18.5647 8.8 19.8196 8.54902 20.9098C8.40784 21.5137 8.68235 22.502 9.07451 23.4902C9.13725 23.498 9.19215 23.5059 9.2549 23.5137C8.8549 22.5255 8.57255 21.5294 8.70588 20.949Z" fill="#44475A"/>
<path d="M8.25099 12.902C8.25883 13.0745 8.25099 13.1922 8.25099 13.2627C8.24315 13.349 8.29805 13.4275 8.37648 13.4588C8.4706 13.498 8.57256 13.4588 8.61962 13.3647C8.6902 13.2392 8.76864 13.0667 8.76864 12.9255C8.76864 12.9176 8.76864 12.902 8.76864 12.8941C8.61177 12.9569 8.42354 13.0039 8.25099 12.902Z" fill="#F8F8F2"/>
<path d="M8.27451 12.9333C8.28236 13.0431 8.2902 13.1451 8.2902 13.2549C8.28236 13.302 8.29804 13.349 8.32941 13.3882C8.43138 13.4902 8.57255 13.4275 8.61177 13.302C8.67451 13.1765 8.72941 13.0431 8.72941 12.902L8.78432 12.9412C8.61177 12.9725 8.43138 13.0196 8.26667 12.949C8.26667 12.949 8.27451 12.9412 8.27451 12.9333ZM8.2353 12.8627C8.25098 12.8627 8.28236 12.8706 8.29804 12.8863C8.43922 12.9882 8.61961 12.9412 8.76079 12.8627C8.78432 12.8471 8.82353 12.8706 8.81569 12.902C8.80785 13.0824 8.73726 13.2549 8.64314 13.4118C8.55687 13.5294 8.37647 13.5373 8.27451 13.4353C8.22745 13.3882 8.20392 13.3098 8.21177 13.2471C8.21177 13.1137 8.22745 12.9882 8.2353 12.8627Z" fill="#44475A"/>
<path d="M15.6392 18.1176C15.7726 17.1922 15.6471 16.5333 15.6 16.3373C15.5765 16.3529 15.5608 16.3765 15.5373 16.3922C15.5137 16.4157 15.4902 16.4314 15.4667 16.4549C15.5137 16.7059 15.6 17.302 15.4824 18.0941C15.4275 18.4627 15.4118 19.0431 15.4039 19.7176C15.3882 20.3686 15.1843 21.9922 14.9412 23.5294C14.9961 23.5137 15.051 23.498 15.1059 23.4902C15.349 21.9686 15.5451 20.3765 15.5608 19.7255C15.5765 19.051 15.5843 18.4784 15.6392 18.1176Z" fill="#44475A"/>
<path d="M22.6039 6.61176C27.3647 15.7804 18.9961 26.1255 9.0196 23.6C4.54117 22.4863 0.94117 18.6039 0.196071 14.0471C-0.650987 9.51373 1.39607 4.64314 5.22352 2.07843C10.4706 -1.52941 17.7412 -0.329413 21.498 4.83137C21.5216 4.8549 21.5137 4.89412 21.4823 4.91765C21.4588 4.94118 21.4196 4.93333 21.3961 4.90196C20.8784 4.23529 20.2902 3.63137 19.6471 3.0902C18.5882 2.18824 17.349 1.48235 16.0392 1.00392C9.37254 -1.41176 2.05489 2.60392 0.596071 9.57647C-1.05099 17.3882 5.59215 24.5804 13.5137 23.5059C19.6235 22.7373 24.1647 17.098 23.6627 10.9647C23.5529 9.48235 23.1608 8.01569 22.5098 6.66667C22.4941 6.64314 22.5098 6.61176 22.5333 6.59608C22.5569 6.58039 22.5882 6.58824 22.6039 6.61176Z" fill="#44475A"/>
</g>
</svg>
